<svg width="24px" height="24px" viewBox="0 0 19 24" fill="none" xmlns="http://www.w3.org/2000/svg"><g clip-path="url(#clip0_613_3904)"><path d="M10.6622 19.9856C8.06714 21.4296 4.84926 21.4296 2.26903 19.9856C1.54242 19.5812 0.623022 19.8267 0.207813 20.5343C-0.207397 21.2419 0.0446946 22.1372 0.771312 22.5415C2.52112 23.5235 4.49337 24 6.46562 24C8.43786 24 10.4101 23.509 12.1599 22.5415C12.8865 22.1372 13.1386 21.2419 12.7234 20.5343C12.3082 19.8267 11.3888 19.5812 10.6622 19.9856Z" fill="black"></path><path d="M11.7594 0C8.0373 0 4.99737 2.96029 4.99737 6.58484C4.99737 6.65704 4.99737 6.72924 4.99737 6.80144C4.99737 6.84476 4.99737 6.87364 4.99737 6.91697V16.6498C4.99737 17.4585 5.6795 18.1227 6.50992 18.1227C7.34034 18.1227 8.02247 17.4585 8.02247 16.6498V12.0722C9.09015 12.7653 10.3803 13.1697 11.7594 13.1697C15.4963 13.1697 18.5214 10.2094 18.5214 6.58484C18.5214 2.96029 15.4963 0 11.7594 0ZM11.7594 10.2383C9.69814 10.2383 8.02247 8.6065 8.02247 6.59928C8.02247 4.59206 9.69814 2.96029 11.7594 2.96029C13.8206 2.96029 15.4963 4.59206 15.4963 6.59928C15.5111 8.59206 13.8206 10.2383 11.7594 10.2383Z" fill="black"></path></g><defs><clipPath id="clip0_613_3904"><rect width="19" height="24" fill="white"></rect></clipPath></defs></svg>