<svg width="78" height="28" viewBox="0 0 78 28" fill="none" xmlns="http://www.w3.org/2000/svg">
<g id="Phenom logo" clip-path="url(#clip0_940_17466)">
<g id="Vector">
<path d="M12.2548 23.3165C9.2718 25.0012 5.57293 25.0012 2.60703 23.3165C1.7718 22.8448 0.71498 23.1312 0.237707 23.9567C-0.239565 24.7822 0.0502074 25.8267 0.885435 26.2984C2.8968 27.4441 5.16384 28 7.43089 28C9.69793 28 11.965 27.4272 13.9763 26.2984C14.8116 25.8267 15.1013 24.7822 14.6241 23.9567C14.1468 23.1312 13.09 22.8448 12.2548 23.3165Z" fill="black"/>
<path d="M13.5159 0C9.2375 0 5.74318 3.45367 5.74318 7.68231C5.74318 7.76655 5.74318 7.85078 5.74318 7.93502C5.74318 7.98556 5.74318 8.01925 5.74318 8.0698V19.4248C5.74318 20.3682 6.52727 21.1432 7.48181 21.1432C8.43636 21.1432 9.22045 20.3682 9.22045 19.4248V14.0842C10.4477 14.8929 11.9307 15.3646 13.5159 15.3646C17.8114 15.3646 21.2886 11.911 21.2886 7.68231C21.2886 3.45367 17.8114 0 13.5159 0ZM13.5159 11.9446C11.1466 11.9446 9.22045 10.0409 9.22045 7.69916C9.22045 5.3574 11.1466 3.45367 13.5159 3.45367C15.8852 3.45367 17.8114 5.3574 17.8114 7.69916C17.8284 10.0241 15.8852 11.9446 13.5159 11.9446Z" fill="black"/>
<path d="M25.0559 20.065V11.0349C25.0559 10.58 25.4309 10.2094 25.8911 10.2094C26.3343 10.2094 26.6922 10.5126 26.7604 10.8496C27.34 10.4789 28.107 10.2094 28.9081 10.2094C31.0047 10.2094 32.7263 11.9783 32.7263 14.1179C32.7263 16.2575 31.0047 17.9759 28.9081 17.9759C28.1241 17.9759 27.357 17.7401 26.7945 17.3357V20.0818C26.7945 20.5199 26.4025 20.9242 25.8911 20.9242C25.4309 20.9073 25.0559 20.503 25.0559 20.065ZM26.7945 14.1011C26.7945 14.7076 26.9991 15.2972 27.4081 15.651C27.8002 16.0891 28.3286 16.3081 28.9081 16.3081C29.4366 16.3081 29.982 16.0891 30.3911 15.651C30.7491 15.2972 31.0047 14.7076 31.0047 14.1011C31.0047 13.4946 30.7491 12.9386 30.3911 12.5343C29.982 12.1131 29.4536 11.8941 28.9081 11.8941C28.3286 11.8941 27.8002 12.1131 27.4081 12.5343C26.9991 12.9386 26.7945 13.4946 26.7945 14.1011Z" fill="black"/>
<path d="M35.1977 17.1336C35.1977 17.6222 34.8057 17.9928 34.3114 17.9928C33.9193 17.9928 33.5954 17.7064 33.4761 17.3526C33.4591 17.2852 33.442 17.2178 33.442 17.1336V7.95187C33.442 7.4633 33.8341 7.09266 34.3114 7.09266C34.8057 7.09266 35.1977 7.4633 35.1977 7.95187V10.6643C35.7091 10.3947 36.2716 10.2094 36.8852 10.2094C38.7943 10.2094 40.3114 11.7425 40.3114 13.6125V17.1336C40.3114 17.6222 39.9364 17.9928 39.442 17.9928C38.9477 17.9928 38.5727 17.6222 38.5727 17.1336V13.6125C38.5727 12.7028 37.8227 11.9447 36.8682 11.9278C35.9477 11.9447 35.1977 12.6859 35.1807 13.6125V17.1336H35.1977Z" fill="black"/>
<path d="M41.4534 14.1011C41.4705 11.9783 43.1409 10.2094 45.2886 10.2094C47.3341 10.2094 48.9534 11.7256 49.0898 13.8147V13.8989C49.0898 13.9326 49.0898 14 49.0727 14.0337C49.0216 14.4043 48.6977 14.657 48.2546 14.657H43.2432C43.3284 15.0108 43.4989 15.4152 43.7716 15.6847C44.0955 16.0554 44.7261 16.3418 45.2886 16.3923C45.8511 16.4428 46.533 16.2912 46.925 16.0048C47.2489 15.6679 47.8966 15.7016 48.1011 15.9543C48.3057 16.1733 48.4591 16.645 48.1011 16.9651C47.3341 17.6727 46.3966 17.9928 45.2886 17.9928C43.1239 17.9759 41.4705 16.207 41.4534 14.1011ZM43.158 13.3261H47.6068C47.4534 12.7028 46.6523 11.793 45.2716 11.6751C43.9591 11.7425 43.2943 12.6859 43.158 13.3261Z" fill="black"/>
<path d="M56.7265 13.444V17.1673C56.7265 17.6222 56.3686 17.9928 55.9083 17.9928C55.4651 17.9928 55.0731 17.6222 55.0731 17.1673V13.444C55.0731 12.568 54.3401 11.8773 53.4367 11.8773C52.5504 11.8773 51.8686 12.5848 51.8686 13.444V17.1673C51.8686 17.2178 51.8686 17.2684 51.8345 17.3189C51.7492 17.6895 51.4083 17.9928 50.9992 17.9928C50.522 17.9928 50.164 17.6222 50.164 17.1673V11.0349C50.164 10.58 50.522 10.2094 50.9992 10.2094C51.3231 10.2094 51.6299 10.3947 51.7663 10.698C52.2436 10.3947 52.8231 10.2094 53.4367 10.2094C55.2776 10.2094 56.7265 11.6751 56.7265 13.444Z" fill="black"/>
<path d="M58.9254 16.8472C58.2436 16.1564 57.8345 15.1961 57.8345 14.1011C57.8345 13.0397 58.2436 12.13 58.9254 11.3718C59.6413 10.6474 60.5447 10.1925 61.6356 10.1925C62.6754 10.1925 63.6129 10.6474 64.2606 11.3718C64.9765 12.1131 65.3686 13.0397 65.3686 14.1011C65.3686 15.1961 64.9765 16.1564 64.2606 16.8472C63.6129 17.5716 62.6754 18.0265 61.6356 18.0265C60.5447 18.0265 59.6242 17.5716 58.9254 16.8472ZM59.5561 14.1011C59.5561 14.775 59.7606 15.3141 60.1186 15.7521C60.5106 16.1227 61.039 16.3249 61.6356 16.3249C62.1811 16.3249 62.6924 16.1227 63.0845 15.7521C63.4765 15.3141 63.6981 14.775 63.6981 14.1011C63.6981 13.4609 63.4765 12.9049 63.0845 12.4838C62.6924 12.1468 62.1811 11.8941 61.6356 11.8941C61.039 11.8941 60.5106 12.1468 60.1186 12.4838C59.7606 12.9049 59.5561 13.4777 59.5561 14.1011Z" fill="black"/>
<path d="M73.0898 13.4272V17.1673C73.0898 17.6221 72.7148 17.9928 72.2546 17.9928C71.8114 17.9928 71.4023 17.6221 71.4023 17.1673V13.4272C71.3852 12.568 70.6693 11.8773 69.783 11.8773C68.9136 11.8773 68.1977 12.5848 68.1977 13.4777V17.1673C68.1977 17.201 68.1807 17.2515 68.1807 17.2684V17.3189C68.1636 17.3526 68.1636 17.3863 68.1296 17.42V17.5042C67.9932 17.7906 67.6693 18.0096 67.3455 18.0096C67.2773 18.0096 67.2432 17.9928 67.192 17.9928C66.817 17.8917 66.5102 17.5884 66.5102 17.1841V11.0517C66.5102 10.5632 66.8852 10.2094 67.3455 10.2094C67.6693 10.2094 67.9761 10.3779 68.0955 10.6811C68.6068 10.3779 69.1864 10.2094 69.783 10.2094C70.7716 10.2094 71.658 10.6137 72.2546 11.2876C72.8341 10.6137 73.7375 10.2094 74.7262 10.2094C76.533 10.2094 77.9989 11.6751 77.9989 13.4777V17.1673C77.9989 17.6221 77.6239 17.9928 77.1637 17.9928C76.7034 17.9928 76.3114 17.6221 76.3114 17.1673V13.4777C76.3114 12.5848 75.5955 11.8773 74.7262 11.8773C73.8398 11.8773 73.1239 12.568 73.0898 13.4272Z" fill="black"/>
</g>
</g>
<defs>
<clipPath id="clip0_940_17466">
<rect width="78" height="28" fill="white"/>
</clipPath>
</defs>
</svg>
