<svg width="16" height="16" viewBox="0 0 16 16" fill="none" xmlns="http://www.w3.org/2000/svg">
  <rect width="16" height="16" rx="8" fill="#0A66C2"/>
  <path d="M4.3 6.35H6V12H4.3V6.35ZM5.15 3.75C5.7 3.75 6.15 4.18 6.15 4.72C6.15 5.25 5.7 5.68 5.15 5.68C4.6 5.68 4.15 5.25 4.15 4.72C4.15 4.18 4.6 3.75 5.15 3.75ZM7.05 6.35H8.68V7.12H8.7C8.93 6.68 9.48 6.22 10.3 6.22C12.02 6.22 12.34 7.35 12.34 8.82V12H10.64V9.18C10.64 8.5 10.63 7.64 9.7 7.64C8.76 7.64 8.62 8.37 8.62 9.13V12H7.05V6.35Z" fill="white"/>
</svg>
