<svg width="58" height="76" viewBox="0 0 58 76" fill="none" xmlns="http://www.w3.org/2000/svg">
<path d="M29 40.375C29.3164 40.375 29.5977 40.5859 29.7383 40.8672L31.8477 45.4023L36.3828 47.5117C36.6641 47.6523 36.875 47.9336 36.875 48.25C36.875 48.6016 36.6641 48.8828 36.3828 49.0234L31.8477 51.1328L29.7383 55.668C29.5977 55.9492 29.3164 56.125 29 56.125C28.6484 56.125 28.3672 55.9492 28.2266 55.668L26.1172 51.1328L21.582 49.0234C21.3008 48.8828 21.125 48.6016 21.125 48.25C21.125 47.9336 21.3008 47.6523 21.582 47.5117L26.1172 45.4023L28.2266 40.8672C28.3672 40.5859 28.6484 40.375 29 40.375ZM29 43.2578L27.5234 46.3867C27.4531 46.5625 27.3125 46.7383 27.1016 46.8086L23.9727 48.25L27.1016 49.7266C27.3125 49.7969 27.4531 49.9375 27.5234 50.1484L29 53.2773L30.4414 50.1484C30.5117 49.9375 30.6523 49.7969 30.8633 49.7266L33.9922 48.25L30.8633 46.8086C30.6875 46.7383 30.5117 46.5977 30.4414 46.3867L29 43.2578Z" fill="#4D3EE0"/>
</svg>
