<svg width="16" height="16" viewBox="0 0 16 16" fill="none" xmlns="http://www.w3.org/2000/svg">
<path d="M8 11.75C8.2125 11.75 8.39075 11.678 8.53475 11.534C8.67825 11.3905 8.75 11.2125 8.75 11V7.98125C8.75 7.76875 8.67825 7.59375 8.53475 7.45625C8.39075 7.31875 8.2125 7.25 8 7.25C7.7875 7.25 7.6095 7.32175 7.466 7.46525C7.322 7.60925 7.25 7.7875 7.25 8V11.0187C7.25 11.2312 7.322 11.4062 7.466 11.5438C7.6095 11.6813 7.7875 11.75 8 11.75ZM8 5.75C8.2125 5.75 8.39075 5.678 8.53475 5.534C8.67825 5.3905 8.75 5.2125 8.75 5C8.75 4.7875 8.67825 4.60925 8.53475 4.46525C8.39075 4.32175 8.2125 4.25 8 4.25C7.7875 4.25 7.6095 4.32175 7.466 4.46525C7.322 4.60925 7.25 4.7875 7.25 5C7.25 5.2125 7.322 5.3905 7.466 5.534C7.6095 5.678 7.7875 5.75 8 5.75ZM8 15.5C6.9625 15.5 5.9875 15.303 5.075 14.909C4.1625 14.5155 3.36875 13.9813 2.69375 13.3063C2.01875 12.6313 1.4845 11.8375 1.091 10.925C0.697 10.0125 0.5 9.0375 0.5 8C0.5 6.9625 0.697 5.9875 1.091 5.075C1.4845 4.1625 2.01875 3.36875 2.69375 2.69375C3.36875 2.01875 4.1625 1.48425 5.075 1.09025C5.9875 0.69675 6.9625 0.5 8 0.5C9.0375 0.5 10.0125 0.69675 10.925 1.09025C11.8375 1.48425 12.6313 2.01875 13.3063 2.69375C13.9813 3.36875 14.5155 4.1625 14.909 5.075C15.303 5.9875 15.5 6.9625 15.5 8C15.5 9.0375 15.303 10.0125 14.909 10.925C14.5155 11.8375 13.9813 12.6313 13.3063 13.3063C12.6313 13.9813 11.8375 14.5155 10.925 14.909C10.0125 15.303 9.0375 15.5 8 15.5ZM8 14C9.6625 14 11.0782 13.4158 12.2472 12.2472C13.4158 11.0782 14 9.6625 14 8C14 6.3375 13.4158 4.92175 12.2472 3.75275C11.0782 2.58425 9.6625 2 8 2C6.3375 2 4.922 2.58425 3.7535 3.75275C2.5845 4.92175 2 6.3375 2 8C2 9.6625 2.5845 11.0782 3.7535 12.2472C4.922 13.4158 6.3375 14 8 14Z" fill="#637085"/>
</svg>
